<svg xmlns="http://www.w3.org/2000/svg" viewBox="0 0 1200 630" width="1200" height="630">
  <defs>
    <linearGradient id="bg" x1="0" y1="0" x2="1" y2="1">
      <stop offset="0%" stop-color="#0b1020" />
      <stop offset="100%" stop-color="#1e1b4b" />
    </linearGradient>
    <linearGradient id="logoGrad" x1="0" y1="0" x2="1" y2="1">
      <stop offset="0%" stop-color="#818cf8" />
      <stop offset="100%" stop-color="#4f46e5" />
    </linearGradient>
    <radialGradient id="glow" cx="0.5" cy="0.5" r="0.5">
      <stop offset="0%" stop-color="#6366f1" stop-opacity="0.45" />
      <stop offset="100%" stop-color="#6366f1" stop-opacity="0" />
    </radialGradient>
  </defs>

  <rect width="1200" height="630" fill="url(#bg)" />
  <circle cx="950" cy="180" r="320" fill="url(#glow)" />
  <circle cx="180" cy="540" r="280" fill="url(#glow)" opacity="0.6" />

  <g transform="translate(80,170)">
    <rect x="0" y="0" width="120" height="120" rx="28" fill="url(#logoGrad)" />
    <g fill="none" stroke="#ffffff" stroke-width="6.5" stroke-linecap="round" stroke-linejoin="round" transform="translate(20,16)">
      <path d="M10 36a30 30 0 0 1 60 0c0 32 14 42 14 42H-4s14-10 14-42z" />
      <path d="M28 86a12 12 0 0 0 24 0" />
    </g>
  </g>

  <g transform="translate(240,200)" font-family="Inter, Arial, sans-serif" fill="#f8fafc">
    <text font-size="78" font-weight="800" letter-spacing="-2">FCM Deck</text>
    <text y="60" font-size="32" font-weight="500" fill="#cbd5e1">
      Send Firebase push notifications from your browser.
    </text>
    <text y="105" font-size="26" font-weight="500" fill="#94a3b8">
      Multi-project · Multi-token · Custom payload · 100% client-side
    </text>
  </g>

  <g transform="translate(80,520)" font-family="Inter, Arial, sans-serif" fill="#94a3b8">
    <text font-size="22" font-weight="600" fill="#a5b4fc">fcmdeck.web.app</text>
    <text x="0" y="34" font-size="20">Free · Open Source · No backend required</text>
  </g>
</svg>
